# xmcd
#
# Track frame offsets:
#	150
#	15575
#	33367
#	52585
#	71942
#	93507
#	114842
#	136012
#	158437
#	173475
#	189442
#
# Disc length: 2892 seconds
#
# Revision: 1
# Processed by: cddbd v1.4PL0 Copyright (c) Steve Scherf et al.
# Submitted via: audiograbber 1.80.04
#
DISCID=770b4a0b
DTITLE=Countrypolitans - Face Of My Hometown
DYEAR=2001
DGENRE=Alt. Country
TTITLE0=I Can't Stop You
TTITLE1=Falling at Your Feet
TTITLE2=Maybe it's You
TTITLE3=After You're Gone
TTITLE4=Face of My Hometown
TTITLE5=Kind of Funny
TTITLE6=Hurricane
TTITLE7=LA Turnaround
TTITLE8=Designated Driver
TTITLE9=I Wanna Score
TTITLE10=Faith
EXTD=
EXTT0=
EXTT1=
EXTT2=
EXTT3=
EXTT4=
EXTT5=
EXTT6=
EXTT7=
EXTT8=
EXTT9=
EXTT10=
PLAYORDER=
